<svg xmlns="http://www.w3.org/2000/svg" xmlns:xlink="http://www.w3.org/1999/xlink" width="253.175" height="339.373" viewBox="0 0 253.175 339.373">
  <defs>
    <linearGradient id="linear-gradient" y1="0.5" x2="1" y2="0.5" gradientUnits="objectBoundingBox">
      <stop offset="0" stop-color="#ecc4d7"/>
      <stop offset="0.42" stop-color="#efd4d1"/>
      <stop offset="1" stop-color="#f2eac9"/>
    </linearGradient>
    <linearGradient id="linear-gradient-2" x1="0.876" y1="-0.61" x2="0.391" y2="0.43" xlink:href="#linear-gradient"/>
    <linearGradient id="linear-gradient-3" x1="0" y1="0.5" x2="1" y2="0.5" xlink:href="#linear-gradient"/>
    <linearGradient id="linear-gradient-4" x1="0" y1="0.5" x2="1" y2="0.5" xlink:href="#linear-gradient"/>
    <linearGradient id="linear-gradient-5" x1="1.668" y1="0.393" x2="-7.442" y2="1.07" gradientUnits="objectBoundingBox">
      <stop offset="0" stop-color="#fff"/>
      <stop offset="0" stop-opacity="0"/>
      <stop offset="1"/>
    </linearGradient>
  </defs>
  <g id="Question_Monochromatic" transform="translate(-0.002 -0.004)">
    <path id="Path_68" data-name="Path 68" d="M294.014,133.8c-13.281,13.862-17.7,34-28.971,49.537-13.179,18.176-35.98,30.654-40.736,52.61-5.212,24.178,14.276,46.344,33.931,61.32,9.465,7.219,19.631,14.18,25.79,24.364,3.852,6.374,5.9,13.647,8.986,20.428,9.789,21.644,31.421,38.16,55.15,39.365s47.991-14.467,54.419-37.334c3.139-11.179,2.354-23.687,8.435-33.548,7.956-12.934,24.663-16.924,36.747-26.119,23.112-17.577,24.388-57.025,2.462-76.081-19.224-16.69-51.382-18.876-62.189-41.934-2.929-6.248-3.762-13.275-6.326-19.679C368.37,113.427,316.91,109.9,294.014,133.8Z" transform="translate(-221.838 -65.72)" fill="#a6abb0" opacity="0.18"/>
    <circle id="Ellipse_24" data-name="Ellipse 24" cx="12.886" cy="12.886" r="12.886" transform="translate(101.093 136.966)" fill="#3f3d56"/>
    <path id="Path_69" data-name="Path 69" d="M479.07,427.49s-.725,16.175-1.767,19.308.2,4.571-3.073,5.392-2.121-16.81-2.121-16.81l1.1-6.757Z" transform="translate(-321.455 -185.743)" fill="url(#linear-gradient)"/>
    <path id="Path_70" data-name="Path 70" d="M426.77,435.34l7.566,44.289h6.47l1.617-25.514,1.492,32.032h7.1s6.1-35.087,4.978-41.545a18.877,18.877,0,0,0-1.983-6.093Z" transform="translate(-303.356 -192.806)" fill="#25233a"/>
    <path id="Path_71" data-name="Path 71" d="M433.455,310.391c-.264-3.421-.078-7.057,1.761-9.95a9.9,9.9,0,0,1,6.715-4.409c3.936-.6,7.788,1.2,11.382,2.935,5.272,2.588,10.579,5.2,15.216,8.788s8.621,8.291,10.376,13.892a31.882,31.882,0,0,1,1.252,8.387,32.349,32.349,0,0,1-.545,7.908,22.621,22.621,0,0,1-16.073,16.774c-8.986,2.336-19.224-.964-27.353,3.5a3.78,3.78,0,0,1-1.8.659,2.2,2.2,0,0,1-1.9-1.576,4.972,4.972,0,0,1,0-2.6,13.844,13.844,0,0,1,3.828-6.961c2.48-2.426,5.787-3.828,8.495-5.991a2.63,2.63,0,0,0,1.006-1.27c.323-1.2-.923-2.187-2.067-2.63s-2.51-.839-2.965-1.971a4.63,4.63,0,0,1,.258-2.893c1.036-4.193-1.2-7.009-3.5-10.118C434.857,319.269,433.79,314.776,433.455,310.391Z" transform="translate(-305.578 -130.141)" fill="#3f3d56"/>
    <path id="Path_72" data-name="Path 72" d="M463.988,322.15a63.644,63.644,0,0,0,8.68,11.22c4.643,4.469,12.55,12.5,7.512,18.6a29.953,29.953,0,0,1-11.244,8.429L458.71,350.126V333.352Z" transform="translate(-316.162 -140.707)" fill="#25233a"/>
    <path id="Path_73" data-name="Path 73" d="M408.353,311.655l9.753-.725s-2.738,18.93,10.573,25.077,21.5,7.428,22.4,12.173,4.427,32.128,4.427,32.128l-6.7,1.564-.2-21.177.258,26.712s-14.521,8.147-18.7,6.542S417.2,391.007,417.41,377.4s6.59-23.244-.335-33.6S408.173,316.561,408.353,311.655Z" transform="translate(-295.967 -137.47)" fill="#68e1fd"/>
    <path id="Path_74" data-name="Path 74" d="M408.353,311.655l9.753-.725s-2.738,18.93,10.573,25.077,21.5,7.428,22.4,12.173,4.427,32.128,4.427,32.128l-6.7,1.564-.2-21.177.258,26.712s-14.521,8.147-18.7,6.542S417.2,391.007,417.41,377.4s6.59-23.244-.335-33.6S408.173,316.561,408.353,311.655Z" transform="translate(-295.967 -137.47)" fill="#2389bf"/>
    <path id="Path_75" data-name="Path 75" d="M447.12,350.806s.371,5.631,3.99,5.493,3.624-1.947,3.624-1.947l2.3-9.813-9.914.6S448.246,349.3,447.12,350.806Z" transform="translate(-311.515 -149.559)" fill="url(#linear-gradient-2)"/>
    <path id="Path_76" data-name="Path 76" d="M447.837,349.475s-.455,2.9,1.408,3.72a6.176,6.176,0,0,0,5.589-1.036l.168,3.93,1.677-7.159Z" transform="translate(-311.783 -151.314)" fill="#222a72"/>
    <path id="Path_77" data-name="Path 77" d="M441.761,317.216s-2.091,14.9,5.422,17.918,9.813-5.074,10.783-8.956-1.839-17.792-7.788-15.63A16.174,16.174,0,0,0,441.761,317.216Z" transform="translate(-309.259 -135.209)" fill="url(#linear-gradient-3)"/>
    <path id="Path_78" data-name="Path 78" d="M486.63,310.85" transform="translate(-327.356 -134.763)" fill="#fff"/>
    <path id="Path_79" data-name="Path 79" d="M411.2,300.046s.7-5.212.719-5.308A2.684,2.684,0,0,0,410.8,292.2c-.719-.539-1.51-1.8-1.51-4.7s3.079-6.051,4.349-4.793,1.276,2.253,2.456,2.438.27,3.181,0,4.193,1.45,10.25,1.45,10.25Z" transform="translate(-296.348 -122.972)" fill="url(#linear-gradient-4)"/>
    <path id="Path_80" data-name="Path 80" d="M254.79,391.76l3.894,20.29-3.69.863Z" transform="translate(-102.154 -168.903)" fill="url(#linear-gradient-5)"/>
    <path id="Path_81" data-name="Path 81" d="M455.05,520.15s-1.683,16.594,1.078,30.079h1.923l4.1-30.079Z" transform="translate(-314.491 -226.809)" fill="#25233a"/>
    <path id="Path_82" data-name="Path 82" d="M494.55,507.15" transform="translate(-330.531 -221.597)" fill="#222a72"/>
    <path id="Path_83" data-name="Path 83" d="M439.4,509.262l3.858,33.841,1.414-.6s2.648-23.963,2.432-26.275-1.234-6.979-1.234-6.979Z" transform="translate(-308.42 -222.439)" fill="#25233a"/>
    <path id="Path_84" data-name="Path 84" d="M437.052,564.78a5.346,5.346,0,0,1,.761,2.48c-.072.707-4.96,6.769-8.453,10.04-3.774,3.534-7.434,2.228-7.434,2.228-1.366-.138-2.073-3.277-1.03-4.193a29.668,29.668,0,0,1,7.572-4.721c6.26-2.648,7.189-5.272,7.189-5.272Z" transform="translate(-300.8 -244.703)" fill="#25233a"/>
    <path id="Path_85" data-name="Path 85" d="M456.9,570.36a9.256,9.256,0,0,0-.4,3.648c.24,1.755,7.788,10.346,7.788,10.346s6.182,4.014,8.351.563-6.4-8.027-8.1-8.986-5.715-5.565-5.715-5.565Z" transform="translate(-315.259 -246.94)" fill="#25233a"/>
    <path id="Path_86" data-name="Path 86" d="M366.773,148.149a13.138,13.138,0,0,0,12.269,9.22c3.445,0,7.321-1.312,10.915-5.655,9.585-11.574-8.057-31.972,15.707-56.635S431.9,26.694,389.22,23.789c-32.6-2.2-45.93,18.068-49.68,30.756V67.407l22.9,8.986s8.758-26.574,23.178-23.19.839,27.215-8.261,36.273C357.3,109.443,363.1,136.736,366.773,148.149Z" transform="translate(-268.382 -10.835)" fill="#3f3d56"/>
    <path id="Path_87" data-name="Path 87" d="M366.785,123.3a13.179,13.179,0,0,0,12.269,9.22c3.445,0,7.321-1.564,10.915-5.9,9.585-11.58-9.279-23.088,14.491-47.751S431.934,5.3,389.25,2.414s-49.68,43.594-49.68,43.594l22.9,8.986s8.74-26.545,23.16-23.172.839,27.209-8.261,36.273C357.314,88.044,363.113,111.892,366.785,123.3Z" transform="translate(-268.394 -2.28)" fill="#f09279"/>
    <path id="Path_143" data-name="Path 143" d="M12.886,0A12.886,12.886,0,1,1,0,12.886,12.886,12.886,0,0,1,12.886,0Z" transform="translate(101.093 128.968)" fill="#f09279"/>
    <circle id="Ellipse_26" data-name="Ellipse 26" cx="5.475" cy="5.475" r="5.475" transform="translate(50.358 147.967) rotate(-64.95)" fill="#3f3d56"/>
    <path id="Path_88" data-name="Path 88" d="M285.384,211.337a5.6,5.6,0,0,0,6.242,1.905,5.854,5.854,0,0,0,3.54-3.846c2.145-5.991-7.86-11.6-1.935-24.909s.563-31.151-16.906-26.1c-13.347,3.846-15.737,13.88-15.4,19.5l1.863,5.128,10.448.264s-.359-11.879,5.895-12.622,4.283,10.753,1.959,15.7C275.978,197.247,282.256,207.312,285.384,211.337Z" transform="translate(-236.852 -69.751)" fill="#3f3d56"/>
    <path id="Path_89" data-name="Path 89" d="M282.8,201.45a5.577,5.577,0,0,0,6.236,1.905,5.975,5.975,0,0,0,3.5-3.942c2.151-5.991-7.051-7.878-1.132-21.183s.306-33.38-17.169-28.342-13.5,24.628-13.5,24.628l10.448.258s-.353-11.873,5.895-12.616,4.283,10.753,1.959,15.689C273.92,188.738,279.671,197.424,282.8,201.45Z" transform="translate(-236.633 -66.067)" fill="#528fa8"/>
    <circle id="Ellipse_27" data-name="Ellipse 27" cx="5.475" cy="5.475" r="5.475" transform="translate(49.096 139.614) rotate(-26.08)" fill="#163465"/>
    <path id="Path_90" data-name="Path 90" d="M269.453,341.638a5.469,5.469,0,1,1-2.39-3.453A5.475,5.475,0,0,1,269.453,341.638Z" transform="translate(-235.94 -146.428)" fill="#3f3d56"/>
    <path id="Path_91" data-name="Path 91" d="M240.653,298.961a5.583,5.583,0,0,0,5.937,2.708,5.794,5.794,0,0,0,4.014-3.343c2.917-5.679-6.266-12.538,1.348-24.951s4.649-30.786-13.335-28.084C224.88,247.352,221.2,256.985,220.8,262.6l1.2,5.332,10.3,1.641s1.2-11.82,7.5-11.736,2.834,11.22-.114,15.809C233.177,283.763,238.083,294.564,240.653,298.961Z" transform="translate(-220.775 -107.807)" fill="#3f3d56"/>
    <path id="Path_92" data-name="Path 92" d="M239.152,288.647a5.589,5.589,0,0,0,5.937,2.708,6,6,0,0,0,3.99-3.445c2.917-5.679-5.961-8.734,1.653-21.147s4.679-33.056-13.305-30.355-16.642,22.639-16.642,22.639l10.3,1.629s1.2-11.82,7.5-11.736,2.834,11.22-.114,15.809C231.993,274.881,236.576,284.25,239.152,288.647Z" transform="translate(-220.76 -103.919)" fill="#528fa8"/>
    <circle id="Ellipse_28" data-name="Ellipse 28" cx="5.475" cy="5.475" r="5.475" transform="translate(21.519 188.006) rotate(-4.27)" fill="#163465"/>
    <path id="Path_93" data-name="Path 93" d="M537.012,271.357a5.475,5.475,0,1,1-4.122-6.56A5.475,5.475,0,0,1,537.012,271.357Z" transform="translate(-343.22 -115.167)" fill="#3f3d56"/>
    <path id="Path_94" data-name="Path 94" d="M525.29,223.716a5.583,5.583,0,0,0,4.193,4.984,5.846,5.846,0,0,0,5.056-1.306c5.062-3.888-.305-14.012,11.879-21.98s17.373-25.85-.054-31.091c-13.3-4.008-20.752,3.127-23.507,8.033l-1.2,5.32,8.638,5.883s6.14-10.184,11.8-7.4-2.234,11.352-6.865,14.246C525.027,206.775,524.859,218.636,525.29,223.716Z" transform="translate(-341.401 -76.54)" fill="#3f3d56"/>
    <path id="Path_95" data-name="Path 95" d="M527.666,213.56a5.577,5.577,0,0,0,4.193,4.984,5.99,5.99,0,0,0,5.086-1.408c5.062-3.888-1.659-10.448,10.532-18.415s18.349-27.868.977-33.128-24.723,13.359-24.723,13.359l8.638,5.883s6.14-10.184,11.8-7.41-2.234,11.382-6.859,14.252C527.073,198.051,527.217,208.486,527.666,213.56Z" transform="translate(-342.231 -72.819)" fill="#528fa8"/>
    <circle id="Ellipse_29" data-name="Ellipse 29" cx="5.475" cy="5.475" r="5.475" transform="matrix(0.37, -0.929, 0.929, 0.37, 182.129, 154.716)" fill="#163465"/>
    <path id="Path_96" data-name="Path 96" d="M585.715,353.315a4.068,4.068,0,1,1,.688-3.039A4.068,4.068,0,0,1,585.715,353.315Z" transform="translate(-364.12 -150.469)" fill="#3f3d56"/>
    <path id="Path_97" data-name="Path 97" d="M584.327,318.943a4.151,4.151,0,0,0,1.492,4.613,4.325,4.325,0,0,0,3.846.533c4.583-1.24,3.75-9.723,14.378-11.76s19.248-12.868,8.752-21.4c-8.009-6.512-15.15-3.714-18.433-1.12l-2.342,3.313,4.277,6.494s7.1-5.26,10.184-1.761-4.745,7.189-8.746,7.86C588.94,307.214,585.459,315.319,584.327,318.943Z" transform="translate(-366.446 -125.44)" fill="#3f3d56"/>
    <path id="Path_98" data-name="Path 98" d="M589.286,312.988a4.158,4.158,0,0,0,1.492,4.619,4.437,4.437,0,0,0,3.888.467c4.583-1.24,1.8-7.65,12.454-9.681s20.506-13.988,10.01-22.519-20.776,2.193-20.776,2.193l4.277,6.488s7.1-5.26,10.184-1.755-4.745,7.189-8.746,7.86C593.27,302.157,590.419,309.369,589.286,312.988Z" transform="translate(-368.435 -123.512)" fill="#528fa8"/>
    <circle id="Ellipse_30" data-name="Ellipse 30" cx="4.074" cy="4.074" r="4.074" transform="matrix(0.566, -0.825, 0.825, 0.566, 214.139, 199.453)" fill="#163465"/>
    <path id="Path_99" data-name="Path 99" d="M411.318,440.773a.42.42,0,0,1-.216-.06.425.425,0,0,1-.156-.6A142.705,142.705,0,0,0,422,414.043c4.445-14.108,8.639-35.165,3.355-55.377-10.184-38.909-12.544-62.8-12.58-63.039a.431.431,0,0,1,.389-.467.425.425,0,0,1,.461.383c0,.24,2.4,24.07,12.544,62.9,5.338,20.416,1.114,41.653-3.373,55.875a144.279,144.279,0,0,1-11.119,26.221A.431.431,0,0,1,411.318,440.773Z" transform="translate(-296.986 -136.601)" fill="#fff"/>
  </g>
</svg>
