<svg xmlns="http://www.w3.org/2000/svg" width="260.58" height="248.73" viewBox="0 0 260.58 248.73">
  <g id="Handshake_Two_Color" data-name="Handshake_Two Color" transform="translate(-68.7 -32.16)">
    <rect id="Rectangle_95" data-name="Rectangle 95" width="76.58" height="96.84" transform="translate(323.16 129) rotate(180)" fill="#e6e6e6"/>
    <path id="Path_100" data-name="Path 100" d="M249.84,52.45s14-1.33,14.32,10.69c0,0-1,21.76,8.13,31.89s32-12.57,38.37,34H288.08l-31-24.13L248.2,71.53Z" fill="#a5a5a5" opacity="0.2"/>
    <circle id="Ellipse_31" data-name="Ellipse 31" cx="14.59" cy="14.59" r="14.59" transform="translate(283.57 57.59)" fill="#fff"/>
    <path id="Path_101" data-name="Path 101" d="M291.74,70.75l3.98,6.15,7.64-9.45" fill="none" stroke="#a5a5a5" stroke-linecap="round" stroke-linejoin="round" stroke-width="4"/>
    <rect id="Rectangle_96" data-name="Rectangle 96" width="29.15" height="7.14" transform="translate(311.3 48.46) rotate(180)" fill="#a5a5a5" opacity="0.4"/>
    <rect id="Rectangle_97" data-name="Rectangle 97" width="76.58" height="96.84" transform="translate(82.99 32.17)" fill="#e6e6e6"/>
    <path id="Path_102" data-name="Path 102" d="M156.3,52.47s-14-1.33-14.31,10.68c0,0,1,21.77-8.13,31.89s-32-12.56-38.37,34h22.58l31-24.12L158,71.54Z" fill="#a5a5a5" opacity="0.2"/>
    <path id="Path_103" data-name="Path 103" d="M174.73,93.67s11.93,14.14,16.93,22.64,22.44,10.62,33.86-10.81c6.78-12.73,8.41-19.5,14.12-15.42s-7.34,21.34-7.34,21.34-5.78,39.75-57.57,27.58C107.44,123.19,174.73,93.67,174.73,93.67Z" fill="#ffcea9"/>
    <ellipse id="Ellipse_32" data-name="Ellipse 32" cx="130.29" cy="18.73" rx="130.29" ry="18.73" transform="translate(68.7 243.43)" fill="#e6e6e6" opacity="0.45"/>
    <path id="Path_104" data-name="Path 104" d="M277.66,97c6.11,23,14.27,82.66-68.93,75.57v-8.25s38-5.75,43-22.25c4.24-14-8.34-50.88,10-55.09C268.78,85.38,275.79,90,277.66,97Z" fill="#68e1fd"/>
    <path id="Path_105" data-name="Path 105" d="M277.66,97c6.11,23,14.27,82.66-68.93,75.57v-8.25s38-5.75,43-22.25c4.24-14-8.34-50.88,10-55.09C268.78,85.38,275.79,90,277.66,97Z" opacity="0.08"/>
    <path id="Path_106" data-name="Path 106" d="M170,58.29s.67,7.69-.62,12.8a3.88,3.88,0,0,1-4.73,2.79c-2.57-.69-5.84-2.36-6.69-6.44l-2.31-6.74a6.92,6.92,0,0,1,3.05-7.4C163,50.17,169.82,53.59,170,58.29Z" fill="#ffcea9"/>
    <path id="Path_107" data-name="Path 107" d="M156.79,62.48,148,81.86l11.44,8.49,2.28-18.23Z" fill="#ffcea9"/>
    <path id="Path_108" data-name="Path 108" d="M168.08,58.61a30.79,30.79,0,0,1-7.11-.55,6.43,6.43,0,0,1,0,7.06,5.24,5.24,0,0,1-6.33,2.09l.13-9.91a7.84,7.84,0,0,1,4-7,29,29,0,0,1,3.31-1.62c2.85-1.14,7,.76,9.59-1.17a1.86,1.86,0,0,1,2.95,1.22c.44,3-.09,7.76-4.17,9.41a7.28,7.28,0,0,1-2.37.47Z" fill="#24285b"/>
    <path id="Path_109" data-name="Path 109" d="M161.79,64.89s0-3-2.28-2.74-2.18,4.52.85,4.92Z" fill="#ffcea9"/>
    <path id="Path_110" data-name="Path 110" d="M170.16,63.15l2.15,3a1.23,1.23,0,0,1-.77,1.94l-2.95.56Z" fill="#ffcea9"/>
    <path id="Path_111" data-name="Path 111" d="M161.66,72.64A9.43,9.43,0,0,1,158.15,69s-2.74,4.81,2.86,8.84Z" fill="#ce8172" opacity="0.31"/>
    <path id="Path_112" data-name="Path 112" d="M234.86,60.71s-.67,7.69.62,12.8a3.87,3.87,0,0,0,4.73,2.79c2.57-.69,5.83-2.36,6.69-6.44l2.31-6.73a6.94,6.94,0,0,0-3.05-7.4C241.81,52.6,235,56,234.86,60.71Z" fill="#ffcea9"/>
    <path id="Path_113" data-name="Path 113" d="M248.06,64.9l8.79,19.38-11.44,8.49-2.29-18.23Z" fill="#ffcea9"/>
    <path id="Path_114" data-name="Path 114" d="M243.05,67.32s.06-3,2.29-2.75,2.18,4.53-.86,4.93Z" fill="#ffcea9"/>
    <path id="Path_115" data-name="Path 115" d="M234.68,65.58l-2.14,3a1.23,1.23,0,0,0,.77,1.94l2.95.55Z" fill="#ffcea9"/>
    <path id="Path_116" data-name="Path 116" d="M243.19,75.06a9.51,9.51,0,0,0,3.51-3.62s2.74,4.81-2.86,8.84Z" fill="#ce8172" opacity="0.31"/>
    <path id="Path_117" data-name="Path 117" d="M190.93,115.11,183,140.58,166.85,138l7.21-45.23S186,105.71,190.93,115.11Z" fill="#68e1fd"/>
    <path id="Path_118" data-name="Path 118" d="M190.93,115.11,183,140.58,166.85,138l7.21-45.23S186,105.71,190.93,115.11Z" fill="#e2445d" opacity="0.08"/>
    <path id="Path_119" data-name="Path 119" d="M291.76,173.53l-8.54,82.78h-8.83l-6.79-64.9-15.58-11.84Z" fill="#24285b"/>
    <path id="Path_120" data-name="Path 120" d="M252.02,179.57v76.8h10.36l9.51-67.65Z" fill="#24285b"/>
    <path id="Path_121" data-name="Path 121" d="M169.39,87.81A30.71,30.71,0,0,0,151,81.37c-10.79,0-28.87,8.09-32.64,35.17s.11,57,.11,57l39.74,6S202,116.3,169.39,87.81Z" fill="#2389bf"/>
    <path id="Path_122" data-name="Path 122" d="M161.79,173.69l-3.6,5.88-39.74-6s-8-58.37,9.13-77.62l13.6,20.76Z" opacity="0.08"/>
    <path id="Path_123" data-name="Path 123" d="M239.64,90.08A30.69,30.69,0,0,1,258,83.38c10.8-.11,29,7.67,33.16,34.68s.72,57,.72,57l-39.66,6.62S207.47,119,239.64,90.08Z" fill="#2389bf"/>
    <path id="Path_124" data-name="Path 124" d="M125.83,103.24c-4.33,23.37-7.88,83.51,74.52,70.06l-.63-8.23s-38.33-2.81-44.58-18.88C149.84,132.58,159.55,94.81,141,92A13.722,13.722,0,0,0,125.83,103.24Z" fill="#ffcea9"/>
    <path id="Path_125" data-name="Path 125" d="M123.9,103.47a57.5,57.5,0,0,0,.34,25.54l29-.25S158,99,145.4,91.36c0,0-3-2.6-9-1.08a17.35,17.35,0,0,0-12.5,13.19Z" fill="#68e1fd"/>
    <path id="Path_126" data-name="Path 126" d="M123.9,103.47a57.5,57.5,0,0,0,.34,25.54l29-.25S158,99,145.4,91.36c0,0-3-2.6-9-1.08a17.35,17.35,0,0,0-12.5,13.19Z" fill="#e2445d" opacity="0.2"/>
    <path id="Path_127" data-name="Path 127" d="M154.94,256.38s.87,4.07,4.34,4.84,3.92,4.32.65,4.79-10.86-4.68-10.86-4.68l.91-5Z" fill="#ffcea9"/>
    <path id="Path_128" data-name="Path 128" d="M106.74,256.38s-.88,4.07-4.34,4.84-3.93,4.32-.65,4.79,10.86-4.68,10.86-4.68l-.91-5Z" fill="#ffcea9"/>
    <path id="Path_129" data-name="Path 129" d="M254,107.86s-4.49,16.06,10.21,28.31,12.09,33.87-16.11,39.19l4.12,6.31,42.4-7.24,2-29.67-15.2-30.59Z" opacity="0.08"/>
    <rect id="Rectangle_98" data-name="Rectangle 98" width="5.33" height="11.33" transform="translate(195.542 162.895) rotate(-4.4)" fill="#ffd200"/>
    <path id="Path_130" data-name="Path 130" d="M230.85,55.67s-1.94,5.41,5.41,5.45,4.27,6.83,10.05,7.19,6.79-2,6.54-6.32.35-12.57-5.95-14.07S229.85,44.92,230.85,55.67Z" fill="#3f3d56"/>
    <path id="Path_131" data-name="Path 131" d="M252.7,103.26c-.58-9.82,9.75-16.65,18.77-12.74,12.79,5.54,33.8,16,37.48,38.08,5.81,34.86-11,47.8-30.11,62.81l-4.27-8.75s23.29-25.17,10-48.3C274.34,116.66,253.51,116.75,252.7,103.26Z" fill="#68e1fd"/>
    <path id="Path_132" data-name="Path 132" d="M252.7,103.26c-.58-9.82,9.75-16.65,18.77-12.74,12.79,5.54,33.8,16,37.48,38.08,5.81,34.86-11,47.8-30.11,62.81l-4.27-8.75s23.29-25.17,10-48.3C274.34,116.66,253.51,116.75,252.7,103.26Z" fill="#e2445d" opacity="0.2"/>
    <path id="Path_133" data-name="Path 133" d="M275.07,183.68l-5.13,2.49,4.45,7.67,4.45-2.43Z" fill="#ffcea9"/>
    <path id="Path_134" data-name="Path 134" d="M158.19,179.57v76.8H147.83l-9.51-67.65Z" fill="#24285b"/>
    <path id="Path_135" data-name="Path 135" d="M216.41,162.81l1,10.36s-8,3.59-12.71.86S206,159.6,216.41,162.81Z" fill="#ffcea9"/>
    <path id="Path_136" data-name="Path 136" d="M254.47,256.38s-.87,4.07-4.34,4.84-3.92,4.32-.65,4.79,10.86-4.68,10.86-4.68l-.9-5Z" fill="#ffcea9"/>
    <path id="Path_137" data-name="Path 137" d="M276.35,256.38s-.88,4.07-4.34,4.84-3.93,4.32-.65,4.79,10.86-4.68,10.86-4.68l-.91-5Z" fill="#ffcea9"/>
    <path id="Path_138" data-name="Path 138" d="M118.44,173.53l-14.42,82.78,11,.06,23.68-64.96,19.49-11.84Z" fill="#24285b"/>
    <path id="Path_139" data-name="Path 139" d="M201.05,164.91s3.16-3.62,6.61-2,.8,1.72,3.8,3.4,7.37,9.4-9.73,7.46Z" fill="#ffcea9"/>
    <circle id="Ellipse_33" data-name="Ellipse 33" cx="14.59" cy="14.59" r="14.59" transform="translate(93.4 57.6)" fill="#fff"/>
    <path id="Path_140" data-name="Path 140" d="M102.79,70.77l3.97,6.15,7.64-9.45" fill="none" stroke="#a5a5a5" stroke-linecap="round" stroke-linejoin="round" stroke-width="4"/>
    <rect id="Rectangle_99" data-name="Rectangle 99" width="29.15" height="7.14" transform="translate(94.85 41.34)" fill="#a5a5a5" opacity="0.4"/>
  </g>
</svg>
