<svg xmlns="http://www.w3.org/2000/svg" xmlns:xlink="http://www.w3.org/1999/xlink" width="268.927" height="327.877" viewBox="0 0 268.927 327.877">
  <defs>
    <linearGradient id="linear-gradient" x1="-101.233" y1="238.364" x2="-101.233" y2="237.13" gradientUnits="objectBoundingBox">
      <stop offset="0.21" stop-color="#fff" stop-opacity="0"/>
      <stop offset="1" stop-color="#fff" stop-opacity="0.2"/>
    </linearGradient>
  </defs>
  <g id="Слой_2" data-name="Слой 2" transform="translate(0 -0.018)">
    <g id="Слой_1" data-name="Слой 1" transform="translate(0 0.018)">
      <path id="Path_1" data-name="Path 1" d="M215.088,390.745,157.5,357.589a2.131,2.131,0,0,1,.085-3.731l7.246-3.731a2.131,2.131,0,0,1,2.033.046l59.518,34.271a2.125,2.125,0,0,1-.085,3.731l-5.246,2.708A6.217,6.217,0,0,1,215.088,390.745Z" transform="translate(-53.852 -120.452)" fill="#d6d8e5" opacity="0.4"/>
      <path id="Path_2" data-name="Path 2" d="M221.561,304.949,172.5,276.62c-4.158-2.4-7.5-8.833-7.5-14.375V125.371c0-5.541,3.371-8.086,7.528-5.686l49.065,28.33c4.158,2.4,7.528,8.833,7.528,14.375V299.264C229.089,304.8,225.718,307.349,221.561,304.949Z" transform="translate(-56.797 -40.899)" fill="#b1b4c4"/>
      <path id="Path_3" data-name="Path 3" d="M252.54,402.051l3.889-1.967L252.7,393.69Z" transform="translate(-86.93 -135.529)" fill="#b1b4c4"/>
      <path id="Path_4" data-name="Path 4" d="M163.79,121.256l3.581-1.876-.721,5.272Z" transform="translate(-56.38 -41.105)" fill="#b1b4c4"/>
      <path id="Path_5" data-name="Path 5" d="M216.774,307.336l-49.065-28.33c-4.158-2.4-7.528-8.84-7.528-14.381V127.758c0-5.541,3.371-8.092,7.528-5.692l49.065,28.33c4.158,2.4,7.528,8.84,7.528,14.381V301.644C224.328,307.186,220.931,309.736,216.774,307.336Z" transform="translate(-55.138 -41.719)" fill="#616e84"/>
      <path id="Path_6" data-name="Path 6" d="M223.505,165.308V302.175c0,5.548-3.364,8.092-7.522,5.692l-19.247-11.109-5.981-3.456-23.844-13.771c-4.158-2.4-7.522-8.833-7.522-14.381V128.289c0-5.548,3.364-8.086,7.522-5.692l49.072,28.33C220.122,153.327,223.505,159.76,223.505,165.308Z" transform="translate(-54.866 -41.902)" fill="#20232d"/>
      <path id="Path_7" data-name="Path 7" d="M221.836,166.819V300.125c0,3.358-2.354,4.722-5.246,3.036l-15.339-8.853-1.357-.78-.452-.269-3.331-1.9-9.6-5.528h0l-3.981-2.3-1.6-.925-10.873-6.276a11.632,11.632,0,0,1-5.246-9.128V133.886c0-3.358,2.354-4.722,5.246-3.043L189.2,141.906v.052a9.069,9.069,0,0,0,4.112,7.1c2.269,1.312,4.105.243,4.105-2.367v-.059L216.577,157.7A11.684,11.684,0,0,1,221.836,166.819Z" transform="translate(-56.731 -44.804)" fill="#fff"/>
      <ellipse id="Ellipse_6" data-name="Ellipse 6" cx="1.277" cy="2.204" rx="1.277" ry="2.204" transform="translate(134.923 100.104) rotate(-29.887)" fill="#2b303f"/>
      <path id="Path_8" data-name="Path 8" d="M207.936,154.3a1.449,1.449,0,0,1-.656-1.128c0-.42.3-.584.656-.38a1.443,1.443,0,0,1,.656,1.134C208.585,154.342,208.3,154.513,207.936,154.3Z" transform="translate(-71.35 -52.577)" fill="#fff" opacity="0.1"/>
      <path id="Path_9" data-name="Path 9" d="M259.818,211.536h0c-.4.236-.728,0-.728-.544v-5.836a1.731,1.731,0,0,1,.728-1.384h0c.4-.236.721,0,.721.544v5.836a1.725,1.725,0,0,1-.721,1.384Z" transform="translate(-89.185 -70.123)" fill="#757b89"/>
      <path id="Path_10" data-name="Path 10" d="M259.818,226.117h0c-.4.236-.728,0-.728-.544v-5.836a1.731,1.731,0,0,1,.728-1.384h0c.4-.236.721,0,.721.544v5.836A1.725,1.725,0,0,1,259.818,226.117Z" transform="translate(-89.185 -75.142)" fill="#757b89"/>
      <path id="Path_11" data-name="Path 11" d="M215.688,186.728l-39.852-23.011a4.84,4.84,0,0,1-2.026-3.869V148.87c0-1.489.9-2.177,2.026-1.528l39.852,23a4.872,4.872,0,0,1,2.026,3.876v10.971C217.714,186.688,216.8,187.37,215.688,186.728Z" transform="translate(-59.829 -50.646)" fill="#e9eaf2"/>
      <path id="Path_12" data-name="Path 12" d="M173.81,164.71v10.138l5.627-2.99Z" transform="translate(-59.829 -56.709)" fill="#e9eaf2"/>
      <path id="Path_13" data-name="Path 13" d="M216.224,179.833,186.17,162.482V159.36l30.054,17.352Z" transform="translate(-64.084 -54.867)" fill="#d9dae2"/>
      <path id="Path_14" data-name="Path 14" d="M201.03,178.2l-14.86-8.584V166.5l14.86,8.578Z" transform="translate(-64.084 -57.325)" fill="#d9dae2"/>
      <path id="Path_15" data-name="Path 15" d="M204.881,268.579,175.836,251.81a4.84,4.84,0,0,1-2.026-3.869V242.23c0-1.489.9-2.177,2.026-1.528l29.044,16.768a4.859,4.859,0,0,1,2.026,3.869v5.705C206.907,268.539,206,269.228,204.881,268.579Z" transform="translate(-59.829 -82.783)" fill="#e9eaf2"/>
      <path id="Path_16" data-name="Path 16" d="M173.81,249.75v10.138l5.627-2.99Z" transform="translate(-59.829 -85.981)" fill="#e9eaf2"/>
      <path id="Path_17" data-name="Path 17" d="M205.787,267.164,183.13,254.081V250.96l22.657,13.083Z" transform="translate(-63.037 -86.398)" fill="#d9dae2"/>
      <path id="Path_18" data-name="Path 18" d="M197.336,222.7l25.752,14.866c1.115.656,2.026-.039,2.026-1.528v-11a4.853,4.853,0,0,0-2.026-3.869l-25.752-14.853c-1.121-.656-2.026.046-2.026,1.535v10.978a4.853,4.853,0,0,0,2.026,3.869Z" transform="translate(-67.23 -70.947)" fill="#e9eaf2"/>
      <path id="Path_19" data-name="Path 19" d="M237.8,249.94v10.138l-5.633-9.489Z" transform="translate(-79.918 -86.047)" fill="#e9eaf2"/>
      <path id="Path_20" data-name="Path 20" d="M203.42,219.015l17.011,9.824v-3.122L203.42,215.9Z" transform="translate(-70.022 -74.329)" fill="#d9dae2"/>
      <path id="Path_21" data-name="Path 21" d="M203.42,226.152l9.115,5.266V228.3l-9.115-5.266Z" transform="translate(-70.022 -76.784)" fill="#d9dae2"/>
      <path id="Path_22" data-name="Path 22" d="M175.836,298.892l39.616,22.874c1.121.656,2.026-.039,2.026-1.535V309.259a4.853,4.853,0,0,0-2.026-3.876L175.836,282.51c-1.121-.656-2.026.039-2.026,1.535v10.978A4.853,4.853,0,0,0,175.836,298.892Z" transform="translate(-59.829 -97.173)" fill="#e9eaf2"/>
      <path id="Path_23" data-name="Path 23" d="M237.447,338.34v10.138l-5.627-9.489Z" transform="translate(-79.798 -116.476)" fill="#e9eaf2"/>
      <path id="Path_24" data-name="Path 24" d="M183.08,295.872l28.028,16.185v-3.122L183.08,292.75Z" transform="translate(-63.02 -100.783)" fill="#d9dae2"/>
      <path id="Path_25" data-name="Path 25" d="M183.08,303.012l26.113,15.076v-3.121L183.08,299.89Z" transform="translate(-63.02 -103.241)" fill="#d9dae2"/>
      <path id="Path_26" data-name="Path 26" d="M215.509,361.017,175.657,338a5.246,5.246,0,0,1-2.367-4.1v-5.456c0-1.508,1.062-2.118,2.367-1.364l39.852,23a5.246,5.246,0,0,1,2.361,4.1v5.456C217.87,361.148,216.807,361.758,215.509,361.017Zm-39.852-33.156c-.931-.538-1.692-.1-1.692.971v5.463a3.738,3.738,0,0,0,1.692,2.925l39.852,23c.931.538,1.685.1,1.685-.971V353.8a3.731,3.731,0,0,0-1.685-2.925Z" transform="translate(-59.65 -112.489)" fill="#e9eaf2"/>
      <path id="Path_27" data-name="Path 27" d="M178.945,338.187l-.675-.387v-5.2l.675.387Z" transform="translate(-61.365 -114.5)" fill="#e9eaf2"/>
      <g id="Men_8" transform="translate(207.997 66.711)">
        <ellipse id="Ellipse_7" data-name="Ellipse 7" cx="22.716" cy="13.116" rx="22.716" ry="13.116" transform="translate(6.646 111.065)" fill="#d6d8e5" opacity="0.4"/>
        <path id="Path_28" data-name="Path 28" d="M374.632,286c-1.58,1.312-3.935.111-4.026.23a69.9,69.9,0,0,1-5.83,4.853c-.984.774-2.518,1.81-2.243,3.279.5,2.662,4.761,1.843,6.368,1.03s2.918-2.164,4.44-3.108c1.089-.656,2.158-1.023,2.328-2.394C375.78,289.075,374.927,285.96,374.632,286Z" transform="translate(-332.777 -165.17)" fill="#38226d"/>
        <path id="Path_29" data-name="Path 29" d="M375.693,291.11c-.2,1.312-1.259,1.672-2.335,2.341-1.548.957-2.912,2.348-4.518,3.161-1.482.748-5.187,1.5-6.23-.407.564,2.571,4.748,1.764,6.341.957s2.918-2.164,4.44-3.108c1.089-.656,2.157-1.023,2.328-2.394a2.86,2.86,0,0,0-.026-.551Z" transform="translate(-332.815 -166.929)" fill="#9c73ff"/>
        <path id="Path_30" data-name="Path 30" d="M353.851,278.216c-1.58,1.312-4.348-.118-4.459,0a62.118,62.118,0,0,1-5.213,4.7c-.984.774-2.518,1.81-2.236,3.279.492,2.662,4.754,1.843,6.361,1.03s2.925-2.164,4.446-3.108c1.082-.656,2.151-1.023,2.321-2.394C355.169,280.912,354.133,278.184,353.851,278.216Z" transform="translate(-325.689 -162.488)" fill="#38226d"/>
        <path id="Path_31" data-name="Path 31" d="M355.033,283c-.2,1.312-1.259,1.672-2.335,2.341-1.548.964-2.912,2.348-4.518,3.161-1.482.754-5.187,1.5-6.23-.4.564,2.564,4.754,1.757,6.341.951s2.918-2.158,4.446-3.108c1.082-.656,2.151-1.023,2.321-2.394A2.88,2.88,0,0,0,355.033,283Z" transform="translate(-325.704 -164.137)" fill="#9c73ff"/>
        <path id="_Контур_" data-name="&lt;Контур&gt;" d="M369.352,194.04c-.072,2.394-.82,12.768-1.148,18.257s-.413,12.224-.413,12.224.951,4,1.561,8.7,0,19.542,0,19.542a3.731,3.731,0,0,1-4.046,0s-2.525-11.876-3.7-17.227-1.371-8.433-1.967-11.752c-.734-4.013-2.321-22.742-2.321-22.742l-.656.039-1.679,21.155a23.774,23.774,0,0,1,1.069,4.8c.459,3.443-.485,20.768-.485,20.768a4.2,4.2,0,0,1-4.374-.184s-4.223-22.952-4.223-26.434c0-2.308.393-32.789.393-32.789Z" transform="translate(-327.432 -131.574)" fill="#5abff1"/>
        <path id="_Контур_2" data-name="&lt;Контур&gt;" d="M366.315,126.63s-.269,5.207-.151,5.672,2.387,1.967,3.049,2.531-3.6,4.754-5.672,5.705-8.643-1.554-8.755-4.781,1.121-5.935,2.131-6.079S366.315,126.63,366.315,126.63Z" transform="translate(-330.12 -110.311)" fill="#ffcea9"/>
        <path id="Path_32" data-name="Path 32" d="M341.723,133.641s-1.41-2.158-6.558,9.837-8.322,15.142-10.63,18.126c-2.085,2.715-3.115-1.6-3.115-1.6s1.659-2.092.275-2.092c-.774.046-1.856,1.639-1.856,1.639l1.764,2.82,4.59,2.328s5.62-5.168,7.436-8.355c1.967-2.512,4.912-7.5,4.912-7.5Z" transform="translate(-318.093 -112.673)" fill="#ffcea9"/>
        <path id="Path_33" data-name="Path 33" d="M318.943,175.646c-.052-.039-1.423-1.633-1.423-1.633s-.82-.715.072-.767,4.072-.059,4.072-.059a1.312,1.312,0,0,1,.912.256c.4.315,5.01,6.151,5.01,6.151s.2.354-.393.393-4.459,0-4.459,0Z" transform="translate(-317.176 -126.335)" fill="#20232d"/>
        <path id="Path_34" data-name="Path 34" d="M318.728,175.429s-1.357-.256-1.043,1.049,2.262,2.656,2.262,2.656l2.033,1.705a1.541,1.541,0,0,0,1.666,0,1.317,1.317,0,0,0,.452-2.066c-.807-.846-1.528-2.7-3.587-2.623,0,0-.111-.492-1.312-.656" transform="translate(-317.335 -127.102)" fill="#ffcea9"/>
        <path id="_Контур_3" data-name="&lt;Контур&gt;" d="M364.2,134.238s-3.784,5.627-9.056,6.158c-1.659-1.639-1.81-7.469.492-9.332,0,0-2.118-1.712-3.567-1.377a7.909,7.909,0,0,0-3.685,4.289c-.971,2.971-1.515,6.394-1.43,11.922s0,22.408,0,22.408.748,3.574,5.515,6.23,8.282,2.912,11.561,2.158c2.669-.623,4.872-1.561,5.791-3.5-.236-3.876-1.967-13.981-1.312-18.854s1.672-8.525,1.967-12.46-.525-3.863-2.5-5.246a30.641,30.641,0,0,0-3.777-2.4Z" transform="translate(-327.424 -111.349)" fill="#f4f4f4"/>
        <path id="_Контур_4" data-name="&lt;Контур&gt;" d="M376.416,181.2c.787-.879,2.138-5.751,2.912-8.827a30.972,30.972,0,0,0,.446-10.512c-.7-4.2-2.623-10.007-3.167-12.414s.177-3.43,1.246-4.4c1.253-1.141,3.121-.8,4.328,2.544a66.235,66.235,0,0,1,3.154,14.27,32.967,32.967,0,0,1-.938,10.774,37.5,37.5,0,0,1-3.5,8.656c-.413.813-1.357,3.1-1.967,4.754S375.7,182,376.416,181.2Z" transform="translate(-337.525 -116.448)" fill="#ffcea9"/>
        <path id="_Контур_5" data-name="&lt;Контур&gt;" d="M354.209,111.173h0c.623-4.046,3.535-7.109,7.705-6.879A8.02,8.02,0,0,1,366,118.937a8.172,8.172,0,0,1-.656,1.764c-1.475,1.725-5.935,2.794-7.214,2.623a3.824,3.824,0,0,1-3.318-2.721C353.435,117.416,353.868,113.173,354.209,111.173Z" transform="translate(-329.805 -102.618)" fill="#ffcea9"/>
        <path id="Path_35" data-name="Path 35" d="M366.313,118.064h0l-.38-3.528s2.879-7.463-3.935-6.033c-4.5.951-5.627,1.357-6.991-1.659s3.456-5.725,9.181-4.971a7.915,7.915,0,0,1,7.128,8.027C371.133,112.123,370.543,116.615,366.313,118.064Z" transform="translate(-330.118 -101.745)" fill="#3a2c6d"/>
        <path id="Path_36" data-name="Path 36" d="M384.76,151.668s-3.712,3.7-8.112,2.623c-.656-.426-2.138-9.069-2.138-9.069s0-4.787,3.672-4.663S384.76,151.668,384.76,151.668Z" transform="translate(-336.911 -115.105)" fill="#ededed"/>
        <path id="Path_37" data-name="Path 37" d="M345.317,143.081s-2.407.3-3.207-.826c.144-1.967,3.351-12,8.328-12.545a16.921,16.921,0,0,0-3.108,3.758C345.553,136.412,345.317,143.081,345.317,143.081Z" transform="translate(-325.759 -111.371)" fill="#ededed"/>
      </g>
      <g id="Men_2" transform="translate(0 185.815)">
        <ellipse id="Ellipse_8" data-name="Ellipse 8" cx="22.677" cy="13.089" rx="22.677" ry="13.089" transform="translate(0 115.884)" fill="#d6d8e5" opacity="0.4"/>
        <path id="_Контур_6" data-name="&lt;Контур&gt;" d="M7.963,330.53c-.256,2.2-2.879,11.706-2.315,14.965s9.542,8.7,9.542,8.7l1.246-5.574-4.977-4.872,1.344-9.233Z" transform="translate(-1.917 -299.602)" fill="#ffcea9"/>
        <path id="_Контур_7" data-name="&lt;Контур&gt;" d="M15.707,316.051a3.935,3.935,0,0,0-5,1.515c-1.312,2.19-2.7,9.692-2.82,10.978,0,0,1.856,2.558,4.636,2.131Z" transform="translate(-2.716 -294.494)" fill="#ededed"/>
        <path id="Path_38" data-name="Path 38" d="M35,476.658a7.7,7.7,0,0,0,5.81-.7c1.4.046,9-3.207,10.033-.479.9,2.394-2.387,4.59-4.145,5.036-3.836.925-6.676,2.839-8.217,3.167-1.148.243-2.623.4-3.554-.5C33.836,482.094,33.928,478.068,35,476.658Z" transform="translate(-11.756 -349.121)" fill="#2b2a30"/>
        <path id="Path_39" data-name="Path 39" d="M38.633,483.843c1.541-.328,4.381-2.243,8.217-3.167,1.475-.361,4.013-1.967,4.269-3.9.341,2.2-2.623,4.158-4.269,4.59-3.836.925-6.676,2.84-8.217,3.167-1.148.243-2.623.4-3.554-.5a2.19,2.19,0,0,1-.5-.912,4.59,4.59,0,0,0,4.053.721Z" transform="translate(-11.903 -349.945)" fill="#bf4b4b"/>
        <path id="Path_40" data-name="Path 40" d="M16.209,468.218a7.7,7.7,0,0,0,5.81-.7c1.4.046,9-3.207,10.033-.479.9,2.394-2.387,4.59-4.145,5.036-3.836.931-6.682,2.84-8.223,3.167-1.148.243-2.623.4-3.548-.5C15.036,473.654,15.121,469.647,16.209,468.218Z" transform="translate(-5.284 -346.216)" fill="#2b2a30"/>
        <path id="Path_41" data-name="Path 41" d="M19.873,475.4c1.541-.328,4.387-2.243,8.223-3.167,1.469-.361,4.013-1.967,4.269-3.9.341,2.2-2.623,4.158-4.269,4.59-3.836.931-6.682,2.84-8.223,3.167-1.148.243-2.623.4-3.548-.5a2.276,2.276,0,0,1-.5-.912,4.59,4.59,0,0,0,4.053.721Z" transform="translate(-5.446 -347.039)" fill="#bf4b4b"/>
        <path id="_Контур_8" data-name="&lt;Контур&gt;" d="M16.061,415.352a45.906,45.906,0,0,1,1.751-8.322s-.518-7.181-.78-13.994c-.3-7.725-2.984-14.525-.866-20.7l23.877,5.305s-1.443,30.822-1.764,34.54a69.409,69.409,0,0,1-1.069,8.65c-1.089,5.981-2.859,20.2-2.859,20.2a8.883,8.883,0,0,1-5.83.656s.184-17.995.348-22.3c.2-5.246.354-4.859.354-4.859l-.787-13.116-.512-6.518s-.656,4.787-1.089,9.063c-.38,3.725-1.312,7.1-2.282,14.034-.872,6.02-2.289,18.113-2.289,18.113-2.518,1.462-5.941.249-5.941.249S15.379,420.572,16.061,415.352Z" transform="translate(-5.287 -313.994)" fill="#2389bf"/>
        <path id="_Контур_9" data-name="&lt;Контур&gt;" d="M21.207,305.716c1.817.092,3.167.557,3.39,0a23.839,23.839,0,0,0,.42-2.84c-.21-.531-.393-1.1-.393-1.1-2.276-1.4-3-3.869-3.279-6.735-.512-4.905,2.138-9.181,7.043-9.712,4.59-.485,8.007,2.761,8.912,7.214.485,2.2,1.456,6.348.144,9.961-.734,2.02-1.679,3.626-2.623,3.935a24.029,24.029,0,0,1-2.728-.243h0s-.243,1.357-.413,2.236-.1,1.312,1.639,2.407-2.623,3.279-5.489,3.063-6.072-1.967-6.958-3.79C19.876,308.084,19.961,305.657,21.207,305.716Z" transform="translate(-6.95 -284.028)" fill="#ffcea9"/>
        <path id="_Контур_10" data-name="&lt;Контур&gt;" d="M20.76,316.629c-.5,1.259.78,2.794,4.19,3.863s3.718-.308,3.718-.308a67.785,67.785,0,0,1,6.623,3.417c2.053,1.43,2.958,5.574,3.233,12.565.321,8.086.348,20.086.079,22.159,0,0-3.823,3.81-8.722,3.41S16.766,357,14.753,353.654c.052-7.1.885-8.25-.262-12.335-2.623-9.351-4.013-13.181-2.741-19.4,1.056-5.122,2.531-5.758,4.59-5.712a42.82,42.82,0,0,1,4.42.42Z" transform="translate(-3.88 -294.672)" fill="#f4f4f4"/>
        <path id="_Контур_11" data-name="&lt;Контур&gt;" d="M56.451,345.845c-4.013,1.01-4.958-1.521-5.489-3.62-1.272-5.082-1.967-9.666-2.918-12.552-1.121-3.4-2.3-3.935-3.935-4.59-1.967-.774-3.607.866-2.964,5.194a87.707,87.707,0,0,0,3.679,14.768c.5,1.58,1.626,4.387,3.279,5.745,2.072,1.679,5.194,1.607,9.915.433,2.013-.5,4.223-1.705,8.033-3.482,1.036-.479,1.836-.807,3.8-1.725a13.4,13.4,0,0,0,5.036-3.935c1.03-1.489.846-2.439.656-2.774s-.413-.085-.964.538a10.873,10.873,0,0,1-2.892,2.676s1.272-1.312,1.967-2.164a10.965,10.965,0,0,0,1.521-2.479c.361-.872-.387-2.053-.957-1.43s-.839,1.246-1.876,2.492a11.018,11.018,0,0,1-1.9,1.764,20.1,20.1,0,0,0,1.712-2.761c.656-1.344-1.541-.656-2.8.656-.918.951-1.7,1.5-1.725,1.239s-1.81,1.659-2.721,2.623S60.275,344.881,56.451,345.845Z" transform="translate(-14.114 -297.664)" fill="#ffcea9"/>
        <path id="_Контур_12" data-name="&lt;Контур&gt;" d="M41.953,324.072c2.682-.4,4.59.807,5.764,4.872s2.013,7.4,2.013,7.4a7.292,7.292,0,0,1-4.492,2.984c-3.213.774-4.367-.754-4.367-.754s-.892-4.263-1.443-7.161S38.634,324.557,41.953,324.072Z" transform="translate(-13.459 -297.354)" fill="#ededed"/>
        <path id="Path_42" data-name="Path 42" d="M37.407,291.258s4.236-6.446-4.945-7.758c-6.623-.944-10.879,3.312-11.371,7.928-.472,4.413,2.243,8.991,4.21,10.814a7.974,7.974,0,0,0,5.725-.7,32.789,32.789,0,0,0,.125-3.613S27.925,291.14,37.407,291.258Z" transform="translate(-7.242 -283.368)" fill="#2b2a30"/>
      </g>
      <path id="Path_43" data-name="Path 43" d="M78.5,347.051s-1.043-1.9-.38-2.367,1.607,1.312,1.8,2-.072-.21-.072-.21-.715-2.144-.249-2.558,1.089.5,1.712,1.849.151-.111.151-.111-1.03-2.151-.59-2.453c.59-.393,1.561.879,2.138,2.026s-.774,2.512-.774,2.512Z" transform="translate(-26.816 -118.124)" fill="#ffcea9"/>
      <g id="Mobile" transform="translate(49.583 223.35)">
        <path id="Path_44" data-name="Path 44" d="M79.745,349.763l-3.863-2.249c-.334-.19-.289-.518.092-.741l9.4-5.43a1.436,1.436,0,0,1,1.312-.052l3.9,2.249c.328.19.289.525-.092.741l-9.463,5.43A1.417,1.417,0,0,1,79.745,349.763Z" transform="translate(-75.626 -340.796)" fill="#b1b4c4"/>
        <path id="Path_45" data-name="Path 45" d="M75.61,350.171v-.361l.42.157Z" transform="translate(-75.61 -343.774)" fill="#b1b4c4"/>
        <path id="Path_46" data-name="Path 46" d="M98.494,345.081v-.341l-.334.21Z" transform="translate(-83.372 -342.029)" fill="#b1b4c4"/>
        <path id="Path_47" data-name="Path 47" d="M79.745,349.308l-3.863-2.249c-.334-.19-.289-.525.092-.741l9.371-5.417a1.417,1.417,0,0,1,1.312-.052l3.9,2.249c.328.19.289.518-.092.741l-9.4,5.43A1.436,1.436,0,0,1,79.745,349.308Z" transform="translate(-75.626 -340.643)" fill="#616e84"/>
        <ellipse id="Ellipse_9" data-name="Ellipse 9" cx="0.039" cy="0.072" rx="0.039" ry="0.072" transform="translate(0.783 7.694) rotate(-29.887)" fill="#757b89"/>
        <ellipse id="Ellipse_10" data-name="Ellipse 10" cx="0.039" cy="0.072" rx="0.039" ry="0.072" transform="translate(0.768 6.881) rotate(-30)" fill="#757b89"/>
        <ellipse id="Ellipse_11" data-name="Ellipse 11" cx="0.039" cy="0.072" rx="0.039" ry="0.072" transform="translate(0.956 6.998) rotate(-30)" fill="#757b89"/>
        <ellipse id="Ellipse_12" data-name="Ellipse 12" cx="0.039" cy="0.072" rx="0.039" ry="0.072" transform="translate(1.147 7.098) rotate(-30)" fill="#757b89"/>
        <ellipse id="Ellipse_13" data-name="Ellipse 13" cx="0.039" cy="0.072" rx="0.039" ry="0.072" transform="translate(2.755 8.033) rotate(-30)" fill="#757b89"/>
        <ellipse id="Ellipse_14" data-name="Ellipse 14" cx="0.039" cy="0.072" rx="0.039" ry="0.072" transform="translate(2.943 8.139) rotate(-30)" fill="#757b89"/>
        <ellipse id="Ellipse_15" data-name="Ellipse 15" cx="0.039" cy="0.072" rx="0.039" ry="0.072" transform="translate(3.128 8.25) rotate(-30)" fill="#757b89"/>
        <ellipse id="Ellipse_16" data-name="Ellipse 16" cx="0.039" cy="0.072" rx="0.039" ry="0.072" transform="translate(3.316 8.356) rotate(-30)" fill="#757b89"/>
        <path id="Path_48" data-name="Path 48" d="M78.787,352.308l-.518-.3a.151.151,0,0,1-.059-.118h0c0-.039,0-.059.059-.039l.518.3a.138.138,0,0,1,.059.111h0C78.846,352.308,78.82,352.328,78.787,352.308Z" transform="translate(-76.505 -344.476)" fill="#757b89"/>
        <path id="Path_49" data-name="Path 49" d="M96.591,346.484l-.479.275s-.052,0-.052-.039h0a.151.151,0,0,1,.052-.1l.479-.275s.059,0,.059.039h0a.125.125,0,0,1-.059.1Z" transform="translate(-82.649 -342.58)" fill="#757b89"/>
        <path id="Path_50" data-name="Path 50" d="M95.471,347.134l-.479.275s-.052,0-.052-.039h0a.125.125,0,0,1,.052-.1l.479-.275s.059,0,.059.039h0A.131.131,0,0,1,95.471,347.134Z" transform="translate(-82.264 -342.804)" fill="#757b89"/>
        <path id="Path_51" data-name="Path 51" d="M79.745,349.219l-3.863-2.249c-.334-.19-.289-.525.092-.748l9.4-5.43a1.436,1.436,0,0,1,1.312-.052l3.9,2.249c.328.19.289.525-.092.741l-9.4,5.43A1.423,1.423,0,0,1,79.745,349.219Z" transform="translate(-75.626 -340.606)" fill="#20232d"/>
        <path id="Path_52" data-name="Path 52" d="M90.405,343.2l-1.515-.9h0a.708.708,0,0,1-.656,0c-.184-.1-.184-.269,0-.374h0l-1.515-.879a.944.944,0,0,0-.839,0L76.7,346.324c-.23.138-.23.354,0,.485l3.692,2.131a.931.931,0,0,0,.833,0l9.181-5.292C90.641,343.543,90.641,343.327,90.405,343.2Z" transform="translate(-75.926 -340.721)" fill="#2b303f"/>
        <path id="Path_53" data-name="Path 53" d="M90.405,343.2l-1.515-.9h0a.708.708,0,0,1-.656,0c-.184-.1-.184-.269,0-.374h0l-1.515-.879a.944.944,0,0,0-.839,0L76.7,346.324c-.23.138-.23.354,0,.485l3.692,2.131a.931.931,0,0,0,.833,0l9.181-5.292C90.641,343.543,90.641,343.327,90.405,343.2Z" transform="translate(-75.926 -340.721)" opacity="0.5" fill="url(#linear-gradient)"/>
        <ellipse id="Ellipse_17" data-name="Ellipse 17" cx="0.177" cy="0.098" rx="0.177" ry="0.098" transform="translate(12.355 1.366)" fill="#2b303f"/>
        <path id="Path_54" data-name="Path 54" d="M94.64,342.851v-.059a.1.1,0,0,1,.1,0s0,.039,0,.059a.145.145,0,0,1-.1,0Z" transform="translate(-82.161 -341.354)" fill="#fff" opacity="0.1"/>
      </g>
      <path id="Path_55" data-name="Path 55" d="M87.482,350.168a6.232,6.232,0,0,0,1.967-4.315c-.125-1.712-1.161-.479-1.161-.479l-1.043,1.889a5.535,5.535,0,0,1-1.967,1.653,21.694,21.694,0,0,0-2.177.321,5.673,5.673,0,0,0-2.551,1.849l1.607,1.266Z" transform="translate(-27.727 -118.75)" fill="#ffcea9"/>
      <path id="Path_56" data-name="Path 56" d="M52.867,208.617l-37.91-21.89a2.944,2.944,0,0,0-2.525-.393h0a1.967,1.967,0,0,0-.452.262l-4.23,2.42,3.279,3.849v15.8a8.715,8.715,0,0,0,3.935,6.827l11.8,7.417,3.207,7.351L26.6,235.989l4.7-2.689,4.466-5.187,14.25,7.719.767,4.59,4.8-2.741.131-.079h.046a2.853,2.853,0,0,0,1.049-2.485V215.444a8.715,8.715,0,0,0-3.941-6.827Z" transform="translate(-2.668 -64.108)" fill="#1f3865"/>
      <path id="Path_57" data-name="Path 57" d="M47.425,212.71,9.515,190.826c-2.177-1.259-3.935-.243-3.935,2.269v19.673A8.715,8.715,0,0,0,9.515,219.6l11.8,7.423L25.85,237.4l4.466-5.187,17.1,9.273c2.177,1.253,3.935.236,3.935-2.276V219.536a8.715,8.715,0,0,0-3.928-6.827Z" transform="translate(-1.921 -65.513)" fill="#f09279"/>
      <path id="Path_58" data-name="Path 58" d="M380.319,22.473,342.33.544a2.944,2.944,0,0,0-2.531-.4h0a1.738,1.738,0,0,0-.453.262L335.11,2.833l3.279,3.849V22.526a8.735,8.735,0,0,0,3.935,6.84L354.16,36.8l3.213,7.364L354,49.9l4.715-2.682,4.472-5.2,14.27,7.738.774,4.59,4.807-2.754.131-.072h.046a2.839,2.839,0,0,0,1.056-2.485V29.365a8.735,8.735,0,0,0-3.948-6.892Z" transform="translate(-115.352 -0.018)" fill="#8c50ff"/>
      <path id="Path_59" data-name="Path 59" d="M380.319,22.473l-16.953-9.786L342.33.544a2.944,2.944,0,0,0-2.531-.4h0a1.738,1.738,0,0,0-.453.262L335.11,2.833l3.279,3.849V22.526a8.735,8.735,0,0,0,3.935,6.84L354.16,36.8l3.213,7.364L354,49.9l4.715-2.682,4.472-5.2,14.27,7.738.774,4.59,4.807-2.754.131-.072h.046a2.839,2.839,0,0,0,1.056-2.485V29.365a8.735,8.735,0,0,0-3.948-6.892Z" transform="translate(-115.352 -0.018)" fill="#528fa8" opacity="0.2"/>
      <path id="Path_60" data-name="Path 60" d="M374.857,26.576,336.875,4.647c-2.177-1.259-3.935-.236-3.935,2.282V26.6a8.735,8.735,0,0,0,3.935,6.84l11.843,7.463,4.545,10.407,4.472-5.2L374.864,55.4c2.184,1.259,3.935.243,3.935-2.276V33.449a8.728,8.728,0,0,0-3.941-6.873Z" transform="translate(-114.605 -1.426)" fill="#f09279"/>
      <ellipse id="Ellipse_18" data-name="Ellipse 18" cx="2.223" cy="3.849" rx="2.223" ry="3.849" transform="translate(225.057 18.707) rotate(-30)" fill="#fff"/>
      <ellipse id="Ellipse_19" data-name="Ellipse 19" cx="2.231" cy="3.863" rx="2.231" ry="3.863" transform="translate(237.261 25.309) rotate(-29.887)" fill="#fff"/>
      <ellipse id="Ellipse_20" data-name="Ellipse 20" cx="2.223" cy="3.849" rx="2.223" ry="3.849" transform="translate(247.588 31.722) rotate(-30)" fill="#fff"/>
      <path id="Path_61" data-name="Path 61" d="M296.628,89.777a16,16,0,0,0-7.214-12.512c-2.125-1.226-4.026-1.259-5.345-.341l-2.4,1.357,1.023.407a6.991,6.991,0,0,0-.5,2.748A16.014,16.014,0,0,0,289.4,93.948a7.594,7.594,0,0,0,1.967.82V96.2l3.1-1.744h0C295.828,93.679,296.628,92.066,296.628,89.777Z" transform="translate(-96.957 -26.271)" fill="#dd990e"/>
      <ellipse id="Ellipse_21" data-name="Ellipse 21" cx="5.895" cy="10.217" rx="5.895" ry="10.217" transform="translate(179.585 54.972) rotate(-30)" fill="#f9cb07"/>
      <ellipse id="Ellipse_22" data-name="Ellipse 22" cx="0.839" cy="1.456" rx="0.839" ry="1.456" transform="translate(185.493 56.51) rotate(-30)" fill="#cc8b09"/>
      <ellipse id="Ellipse_23" data-name="Ellipse 23" cx="0.839" cy="1.456" rx="0.839" ry="1.456" transform="translate(191.094 59.736) rotate(-30)" fill="#cc8b09"/>
      <path id="Path_62" data-name="Path 62" d="M285.08,94.26a7.913,7.913,0,0,0,2.846,3.679,2.272,2.272,0,0,0,3.017-.3Z" transform="translate(-98.131 -32.458)" fill="#cc8b09"/>
      <path id="Path_63" data-name="Path 63" d="M99.92,300.806,104,303.166V292.654L99.92,290.3Z" transform="translate(-34.395 -99.94)" fill="#528fa8"/>
      <path id="Path_64" data-name="Path 64" d="M104,291.669l-4.079-2.361,3.305-1.908,4.243,2.374Z" transform="translate(-34.395 -98.941)" fill="#528fa8"/>
      <path id="Path_65" data-name="Path 65" d="M123.43,299.259a2.971,2.971,0,0,0-1.443-2.446l-4.781-2.761.761-3.587V290.2a3.935,3.935,0,0,0-.157-1.128c-.144-.472-.656-1.594-.984-1.364l-5,2.892c-.3.085-.452.433-.452.957v8.794a3.377,3.377,0,0,0,1.515,2.623l6.827,3.935c.6.348,1.134.216,1.364-.262l2.276-4.905a1.312,1.312,0,0,0,.079-.57Z" transform="translate(-38.336 -99.035)" fill="#ffcea9"/>
      <path id="Path_66" data-name="Path 66" d="M122.1,316.9l2.407-1.41-2.19-2.971Z" transform="translate(-42.03 -107.588)" fill="#ffcea9"/>
      <path id="Path_67" data-name="Path 67" d="M119.93,301.3a2.99,2.99,0,0,0-1.443-2.446l-4.781-2.754.761-3.594v-.262a3.98,3.98,0,0,0-.157-1.134c-.144-.472-.656-1.587-.984-1.364l-5,2.892c-.3.085-.452.439-.452.964v8.761a3.364,3.364,0,0,0,1.515,2.623l6.827,3.935c.6.354,1.134.223,1.364-.262l2.276-4.905a1.312,1.312,0,0,0,.079-.571Z" transform="translate(-37.131 -99.738)" fill="#efbd9c"/>
    </g>
  </g>
</svg>
